<?xml version="1.0" encoding="UTF-8"?>
<svg id="Layer_2" data-name="Layer 2" xmlns="http://www.w3.org/2000/svg" viewBox="0 0 351.16 351.17">
  <g id="Layer_2-2" data-name="Layer 2">
    <text class="cls-1" transform="translate(59.01 72.63) rotate(-47.59)"><tspan x="0" y="0"> </tspan></text>
    <text class="cls-1" transform="translate(62.23 68.96) rotate(-44.57)"><tspan x="0" y="0">S</tspan></text>
    <text class="cls-1" transform="translate(70.55 60.75) rotate(-40.26)"><tspan x="0" y="0">e</tspan></text>
    <text class="cls-1" transform="translate(79.51 53.16) rotate(-35.95)"><tspan x="0" y="0">e</tspan></text>
    <text class="cls-1" transform="translate(89.11 46.3) rotate(-32.89)"><tspan x="0" y="0"> </tspan></text>
    <text class="cls-1" transform="translate(92.98 43.46) rotate(-28.51)"><tspan x="0" y="0">M</tspan></text>
    <text class="cls-1" transform="translate(109.79 34.49) rotate(-22.6)"><tspan x="0" y="0">o</tspan></text>
    <text class="cls-1" transform="translate(121.73 29.61) rotate(-18.8)"><tspan x="0" y="0">r</tspan></text>
    <text class="cls-1" transform="translate(128.68 27.16) rotate(-15.29)"><tspan x="0" y="0">e</tspan></text>
    <text class="cls-1" transform="translate(140.09 24.13) rotate(-12.19)"><tspan x="0" y="0">	</tspan></text>
    <text class="cls-1" transform="translate(149.2 22.29) rotate(-8.75)"><tspan x="0" y="0">	</tspan></text>
    <text class="cls-1" transform="translate(184.11 20.2) rotate(5.26)"><tspan x="0" y="0">S</tspan></text>
    <text class="cls-1" transform="translate(195.74 21.26) rotate(9.59)"><tspan x="0" y="0">e</tspan></text>
    <text class="cls-1" transform="translate(207.32 23.21) rotate(13.94)"><tspan x="0" y="0">e</tspan></text>
    <text class="cls-1" transform="translate(218.76 26.14) rotate(17.03)"><tspan x="0" y="0"> </tspan></text>
    <text class="cls-1" transform="translate(223.42 27.27) rotate(21.44)"><tspan x="0" y="0">M</tspan></text>
    <text class="cls-1" transform="translate(241.09 34.37) rotate(27.36)"><tspan x="0" y="0">o</tspan></text>
    <text class="cls-1" transform="translate(252.52 40.37) rotate(31.14)"><tspan x="0" y="0">r</tspan></text>
    <text class="cls-1" transform="translate(258.87 44.12) rotate(34.62)"><tspan x="0" y="0">e</tspan></text>
    <text class="cls-1" transform="translate(268.53 50.89) rotate(37.68)"><tspan x="0" y="0"> </tspan></text>
    <text class="cls-1" transform="translate(272.46 53.92) rotate(39.5)"><tspan x="0" y="0">	</tspan></text>
    <text class="cls-1" transform="translate(279.58 59.95) rotate(42.92)"><tspan x="0" y="0">	</tspan></text>
    <text class="cls-1" transform="translate(302.85 86.02) rotate(56.99)"><tspan x="0" y="0">S</tspan></text>
    <text class="cls-1" transform="translate(309.23 95.83) rotate(61.34)"><tspan x="0" y="0">e</tspan></text>
    <text class="cls-1" transform="translate(314.86 106.11) rotate(65.67)"><tspan x="0" y="0">e</tspan></text>
    <text class="cls-1" transform="translate(319.64 116.89) rotate(68.75)"><tspan x="0" y="0"> </tspan></text>
    <text class="cls-1" transform="translate(321.64 121.25) rotate(73.17)"><tspan x="0" y="0">M</tspan></text>
    <text class="cls-1" transform="translate(327.02 139.53) rotate(79.1)"><tspan x="0" y="0">o</tspan></text>
    <text class="cls-1" transform="translate(329.38 152.22) rotate(82.88)"><tspan x="0" y="0">r</tspan></text>
    <text class="cls-1" transform="translate(330.38 159.54) rotate(86.35)"><tspan x="0" y="0">e</tspan></text>
    <text class="cls-1" transform="translate(331.03 171.31) rotate(89.07)"><tspan x="0" y="0">	</tspan></text>
    <text class="cls-1" transform="translate(330.78 185.6) rotate(94.57)"><tspan x="0" y="0">	</tspan></text>
    <text class="cls-1" transform="translate(324.75 220.03) rotate(108.76)"><tspan x="0" y="0">S</tspan></text>
    <text class="cls-1" transform="translate(321.01 231.07) rotate(113.12)"><tspan x="0" y="0">e</tspan></text>
    <text class="cls-1" transform="translate(316.41 241.88) rotate(117.47)"><tspan x="0" y="0">e</tspan></text>
    <text class="cls-1" transform="translate(310.88 252.32) rotate(120.55)"><tspan x="0" y="0"> </tspan></text>
    <text class="cls-1" transform="translate(308.68 256.59) rotate(124.92)"><tspan x="0" y="0">M</tspan></text>
    <text class="cls-1" transform="translate(297.67 272.12) rotate(130.78)"><tspan x="0" y="0">o</tspan></text>
    <text class="cls-1" transform="translate(289.19 281.83) rotate(134.53)"><tspan x="0" y="0">r</tspan></text>
    <text class="cls-1" transform="translate(284.06 287.16) rotate(138)"><tspan x="0" y="0">e</tspan></text>
    <text class="cls-1" transform="translate(275.23 294.99) rotate(141.06)"><tspan x="0" y="0">	</tspan></text>
    <text class="cls-1" transform="translate(263.88 303.62) rotate(146.29)"><tspan x="0" y="0">	</tspan></text>
    <text class="cls-1" transform="translate(233.11 320.22) rotate(160.49)"><tspan x="0" y="0">S</tspan></text>
    <text class="cls-1" transform="translate(222.1 324.13) rotate(164.86)"><tspan x="0" y="0">e</tspan></text>
    <text class="cls-1" transform="translate(210.8 327.2) rotate(169.2)"><tspan x="0" y="0">e</tspan></text>
    <text class="cls-1" transform="translate(199.18 329.33) rotate(172.28)"><tspan x="0" y="0"> </tspan></text>
    <text class="cls-1" transform="translate(194.45 330.25) rotate(176.64)"><tspan x="0" y="0">M</tspan></text>
    <text class="cls-1" transform="translate(175.43 331.22) rotate(-177.56)"><tspan x="0" y="0">o</tspan></text>
    <text class="cls-1" transform="translate(162.54 330.6) rotate(-173.82)"><tspan x="0" y="0">r</tspan></text>
    <text class="cls-1" transform="translate(155.21 329.88) rotate(-170.33)"><tspan x="0" y="0">e</tspan></text>
    <text class="cls-1" transform="translate(143.59 327.81) rotate(-167.25)"><tspan x="0" y="0">	</tspan></text>
    <text class="cls-1" transform="translate(129.76 324.25) rotate(-161.95)"><tspan x="0" y="0">	</tspan></text>
    <text class="cls-1" transform="translate(97.71 310.34) rotate(-147.74)"><tspan x="0" y="0">S</tspan></text>
    <text class="cls-1" transform="translate(87.81 304.11) rotate(-143.41)"><tspan x="0" y="0">e</tspan></text>
    <text class="cls-1" transform="translate(78.38 297.12) rotate(-139.11)"><tspan x="0" y="0">e</tspan></text>
    <text class="cls-1" transform="translate(69.51 289.33) rotate(-136.06)"><tspan x="0" y="0"> </tspan></text>
    <text class="cls-1" transform="translate(65.86 286.19) rotate(-131.7)"><tspan x="0" y="0">M</tspan></text>
    <text class="cls-1" transform="translate(53.3 271.89) rotate(-125.85)"><tspan x="0" y="0">o</tspan></text>
    <text class="cls-1" transform="translate(45.81 261.39) rotate(-122.08)"><tspan x="0" y="0">r</tspan></text>
    <text class="cls-1" transform="translate(41.83 255.19) rotate(-118.6)"><tspan x="0" y="0">e</tspan></text>
    <text class="cls-1" transform="translate(36.25 244.77) rotate(-115.51)"><tspan x="0" y="0">	</tspan></text>
    <text class="cls-1" transform="translate(30.49 231.72) rotate(-110.22)"><tspan x="0" y="0">	</tspan></text>
    <text class="cls-1" transform="translate(21.56 197.92) rotate(-96)"><tspan x="0" y="0">S</tspan></text>
    <text class="cls-1" transform="translate(20.32 186.3) rotate(-91.7)"><tspan x="0" y="0">e</tspan></text>
    <text class="cls-1" transform="translate(19.97 174.58) rotate(-87.46)"><tspan x="0" y="0">e</tspan></text>
    <text class="cls-1" transform="translate(20.57 162.8) rotate(-84.42)"><tspan x="0" y="0"> </tspan></text>
    <text class="cls-1" transform="translate(20.76 157.98) rotate(-80.03)"><tspan x="0" y="0">M</tspan></text>
    <text class="cls-1" transform="translate(24.2 139.27) rotate(-74.11)"><tspan x="0" y="0">o</tspan></text>
    <text class="cls-1" transform="translate(27.81 126.88) rotate(-70.31)"><tspan x="0" y="0">r</tspan></text>
    <text class="cls-1" transform="translate(30.22 119.9) rotate(-66.8)"><tspan x="0" y="0">e</tspan></text>
    <text class="cls-1" transform="translate(34.96 109.07) rotate(-63.71)"><tspan x="0" y="0"> </tspan></text>
    <text class="cls-1" transform="translate(37.14 104.64) rotate(-61.88)"><tspan x="0" y="0">	</tspan></text>
  </g>
</svg>