<?xml version="1.0" encoding="UTF-8"?>
<svg id="Layer_2" data-name="Layer 2" xmlns="http://www.w3.org/2000/svg" viewBox="0 0 523.29 523.28">
  <defs>
    <style>
      .cls-1 {
        fill: #fff;
        font-family: MarkerFelt-Wide, 'Marker Felt';
        font-size: 48px;
      }
    </style>
  </defs>
  <g id="Layer_1-2" data-name="Layer 1">
    <text class="cls-1" transform="translate(132.34 86.67) rotate(-34.93)"><tspan x="0" y="0"> </tspan></text>
    <text class="cls-1" transform="translate(141.54 80) rotate(-30.68)"><tspan x="0" y="0">c</tspan></text>
    <text class="cls-1" transform="translate(161.56 68.18) rotate(-24.36)"><tspan x="0" y="0">o</tspan></text>
    <text class="cls-1" transform="translate(183.72 58.2) rotate(-17.79)"><tspan x="0" y="0">n</tspan></text>
    <text class="cls-1" transform="translate(205.81 51.19) rotate(-12.28)"><tspan x="0" y="0">t</tspan></text>
    <text class="cls-1" transform="translate(225.27 46.85) rotate(-6.32)"><tspan x="0" y="0">a</tspan></text>
    <text class="cls-1" transform="translate(250.78 44.35) rotate(-.93)"><tspan x="0" y="0">c</tspan></text>
    <text class="cls-1" transform="translate(271.61 44.19) rotate(5.09)"><tspan x="0" y="0">t</tspan></text>
    <text class="cls-1" transform="translate(290.1 45.94) rotate(9.03)"><tspan x="0" y="0"> </tspan></text>
    <text class="cls-1" transform="translate(301.2 46.92) rotate(15.39)"><tspan x="0" y="0">m</tspan></text>
    <text class="cls-1" transform="translate(337.86 57.62) rotate(23.35)"><tspan x="0" y="0">e</tspan></text>
    <text class="cls-1" transform="translate(357.01 66.05) rotate(27.62)"><tspan x="0" y="0">	</tspan></text>
    <text class="cls-1" transform="translate(361.56 68.35) rotate(28.97)"><tspan x="0" y="0">	</tspan></text>
    <text class="cls-1" transform="translate(390.87 86.39) rotate(39.28)"><tspan x="0" y="0">c</tspan></text>
    <text class="cls-1" transform="translate(408.84 101.15) rotate(45.56)"><tspan x="0" y="0">o</tspan></text>
    <text class="cls-1" transform="translate(425.82 118.53) rotate(52.04)"><tspan x="0" y="0">n</tspan></text>
    <text class="cls-1" transform="translate(440.02 136.85) rotate(57.5)"><tspan x="0" y="0">t</tspan></text>
    <text class="cls-1" transform="translate(450.83 153.64) rotate(63.46)"><tspan x="0" y="0">a</tspan></text>
    <text class="cls-1" transform="translate(462.15 176.61) rotate(69.86)"><tspan x="0" y="0">c</tspan></text>
    <text class="cls-1" transform="translate(469.3 196.15) rotate(75.06)"><tspan x="0" y="0">t</tspan></text>
    <text class="cls-1" transform="translate(473.99 214.15) rotate(79.04)"><tspan x="0" y="0"> </tspan></text>
    <text class="cls-1" transform="translate(476.85 224.89) rotate(85.35)"><tspan x="0" y="0">m</tspan></text>
    <text class="cls-1" transform="translate(479.37 263.05) rotate(93.16)"><tspan x="0" y="0">e</tspan></text>
    <text class="cls-1" transform="translate(478.06 283.94) rotate(97.39)"><tspan x="0" y="0">	</tspan></text>
    <text class="cls-1" transform="translate(475.75 300.38) rotate(101.78)"><tspan x="0" y="0">	</tspan></text>
    <text class="cls-1" transform="translate(467.17 333.71) rotate(112.19)"><tspan x="0" y="0">c</tspan></text>
    <text class="cls-1" transform="translate(458.34 355.21) rotate(118.52)"><tspan x="0" y="0">o</tspan></text>
    <text class="cls-1" transform="translate(446.69 376.55) rotate(125.05)"><tspan x="0" y="0">n</tspan></text>
    <text class="cls-1" transform="translate(433.32 395.48) rotate(130.49)"><tspan x="0" y="0">t</tspan></text>
    <text class="cls-1" transform="translate(420.44 410.72) rotate(136.4)"><tspan x="0" y="0">a</tspan></text>
    <text class="cls-1" transform="translate(401.78 428.28) rotate(142.74)"><tspan x="0" y="0">c</tspan></text>
    <text class="cls-1" transform="translate(385.19 440.88) rotate(147.9)"><tspan x="0" y="0">t</tspan></text>
    <text class="cls-1" transform="translate(369.4 450.67) rotate(151.85)"><tspan x="0" y="0"> </tspan></text>
    <text class="cls-1" transform="translate(359.97 456.59) rotate(158.2)"><tspan x="0" y="0">m</tspan></text>
    <text class="cls-1" transform="translate(324.29 470.23) rotate(166.17)"><tspan x="0" y="0">e</tspan></text>
    <text class="cls-1" transform="translate(303.92 475.08) rotate(170.45)"><tspan x="0" y="0">	</tspan></text>
    <text class="cls-1" transform="translate(287.49 477.67) rotate(174.82)"><tspan x="0" y="0">	</tspan></text>
    <text class="cls-1" transform="translate(253.11 479.21) rotate(-174.98)"><tspan x="0" y="0">c</tspan></text>
    <text class="cls-1" transform="translate(229.96 477.12) rotate(-168.67)"><tspan x="0" y="0">o</tspan></text>
    <text class="cls-1" transform="translate(206.12 472.3) rotate(-162.09)"><tspan x="0" y="0">n</tspan></text>
    <text class="cls-1" transform="translate(184.11 465.11) rotate(-156.59)"><tspan x="0" y="0">t</tspan></text>
    <text class="cls-1" transform="translate(165.78 457.27) rotate(-150.62)"><tspan x="0" y="0">a</tspan></text>
    <text class="cls-1" transform="translate(143.51 444.57) rotate(-144.25)"><tspan x="0" y="0">c</tspan></text>
    <text class="cls-1" transform="translate(126.62 432.39) rotate(-139.11)"><tspan x="0" y="0">t</tspan></text>
    <text class="cls-1" transform="translate(112.62 420.13) rotate(-135.18)"><tspan x="0" y="0"> </tspan></text>
    <text class="cls-1" transform="translate(104.22 412.86) rotate(-128.9)"><tspan x="0" y="0">m</tspan></text>
    <text class="cls-1" transform="translate(80.67 382.75) rotate(-121)"><tspan x="0" y="0">e</tspan></text>
    <text class="cls-1" transform="translate(70.02 364.72) rotate(-116.74)"><tspan x="0" y="0">	</tspan></text>
    <text class="cls-1" transform="translate(62.7 349.81) rotate(-112.34)"><tspan x="0" y="0">	</tspan></text>
    <text class="cls-1" transform="translate(51.12 317.42) rotate(-101.94)"><tspan x="0" y="0">c</tspan></text>
    <text class="cls-1" transform="translate(46.36 294.68) rotate(-95.62)"><tspan x="0" y="0">o</tspan></text>
    <text class="cls-1" transform="translate(44.01 270.48) rotate(-89.07)"><tspan x="0" y="0">n</tspan></text>
    <text class="cls-1" transform="translate(44.43 247.28) rotate(-83.76)"><tspan x="0" y="0">t</tspan></text>
    <text class="cls-1" transform="translate(46.5 227.44) rotate(-77.8)"><tspan x="0" y="0">a</tspan></text>
    <text class="cls-1" transform="translate(52.06 202.42) rotate(-71.39)"><tspan x="0" y="0">c</tspan></text>
    <text class="cls-1" transform="translate(58.72 182.7) rotate(-66.19)"><tspan x="0" y="0">t</tspan></text>
    <text class="cls-1" transform="translate(66.32 165.74) rotate(-62.22)"><tspan x="0" y="0"> </tspan></text>
    <text class="cls-1" transform="translate(70.81 155.57) rotate(-55.9)"><tspan x="0" y="0">m</tspan></text>
    <text class="cls-1" transform="translate(92.71 124.27) rotate(-48.02)"><tspan x="0" y="0">e</tspan></text>
  </g>
</svg>