<?xml version="1.0" encoding="UTF-8"?>
<svg id="Layer_2" data-name="Layer 2" xmlns="http://www.w3.org/2000/svg" viewBox="0 0 143.98 64.44">
  <defs>
    <style>
      .cls-1 {
        fill: #003b3f;
      }

      .cls-1, .cls-2 {
        stroke-width: 0px;
      }

      .cls-2 {
        fill: #014355;
      }
    </style>
  </defs>
  <g id="Layer_3" data-name="Layer 3">
    <g>
      <path class="cls-2" d="M86.78,30c.54-11.01,5.58-21.63,17.88-27.53,11.95-5.73,25.76-1.19,33.66,10.55,8.33,12.39,7.38,30.08-2.24,41.48-12.73,15.1-35.06,12.63-44.89-4.96-3-5.36-4.44-11.06-4.4-19.54ZM142.48,32.75c.15-6.09-1.62-12.71-4.78-17.91-9.8-16.13-30.34-17.8-42.23-3.43-10.01,12.09-9.55,31.33,1.02,42.94,10.37,11.38,26.84,11.54,37.39.33,5.78-6.15,8.37-13.58,8.6-21.92Z"/>
      <path class="cls-2" d="M57.2,32.93c-.01,7.4-2.43,14.8-7.66,21.2-10.68,13.07-29.15,13.68-40.66,1.38-11.81-12.61-11.84-33.98-.08-46.58,11.69-12.53,30.43-11.77,41.06,1.69,4.98,6.3,7.31,13.51,7.34,22.32ZM55.7,30.33c.07-4.24-1.46-9.92-4.52-15.18C41.53-1.39,20.58-3.23,8.62,11.41c-9.5,11.63-9.51,29.89-.01,41.51,10.74,13.14,28.7,13.33,39.65.36,5.12-6.07,7.41-13.2,7.43-22.95Z"/>
      <path class="cls-1" d="M130.39,16.6c1.63,1.24,3.55,2.23,4.84,3.75,5.57,6.57,5.44,17.41-.09,24.03-5.92,7.07-15.5,7.54-22.04,1.06-9.38-9.29-5.52-26.83,6.71-30.29,1.56-.44,3.24-.47,4.76-.68-.35,1.64-1.28,3.34-.78,4.26.82,1.51,2.42,2.83,3.99,3.61.94.47,2.93.17,3.58-.56.58-.65.04-2.38-.15-3.6-.09-.57-.5-1.09-.77-1.64l-.05.06Z"/>
      <polygon class="cls-2" points="130.44 16.54 130.29 16.56 130.39 16.6 130.44 16.54"/>
      <path class="cls-1" d="M43.71,16.52c8.72,3.99,11.72,17.08,5.92,26.02-2.83,4.37-6.76,7.08-12.09,7.29-10.16.39-18.07-9.79-16.18-20.71,1.6-9.22,8.38-15.11,16.46-14.47-.31,1.33-1.24,2.96-.78,3.94.68,1.46,2.17,2.82,3.65,3.52,1.07.5,2.94.24,3.93-.43.53-.36.02-2.34-.15-3.58-.08-.57-.47-1.1-.72-1.66,0,0-.05.07-.05.07Z"/>
      <path class="cls-2" d="M43.76,16.45l-.05.07.05-.07Z"/>
    </g>
  </g>
</svg>