<?xml version="1.0" encoding="UTF-8"?>
<svg id="Layer_2" data-name="Layer 2" xmlns="http://www.w3.org/2000/svg" viewBox="0 0 240.51 69.15">
  <defs>
    <style>
      .cls-1 {
        fill: #fff;
        stroke-width: 0px;
      }
    </style>
  </defs>
  <g id="Layer_1-2" data-name="Layer 1">
    <g>
      <path class="cls-1" d="M8.42,7.06v2.59h13.71v6.66h-13.71v9.29H0V.4h22.14v6.66h-13.71Z"/>
      <path class="cls-1" d="M25.2,14.25V.4h8.42v13.71c0,3.17,1.66,4.82,4.21,4.82s4.1-1.66,4.1-4.82V.4h8.42v13.86c0,8.49-5.98,11.7-12.71,11.7s-12.46-3.2-12.46-11.7Z"/>
      <path class="cls-1" d="M75.13,18.93v6.66h-21.53V.4h8.42v18.54h13.1Z"/>
      <path class="cls-1" d="M98.82,18.93v6.66h-21.53V.4h8.42v18.54h13.1Z"/>
      <path class="cls-1" d="M100.55,18.93h13.14c1.12,0,1.66-.5,1.66-1.33s-.54-1.3-1.69-1.3h-5.98c-4.21,0-7.63-2.88-7.63-7.96,0-5.83,4-7.96,8.03-7.96h14.9v6.66h-12.85c-.97,0-1.66.36-1.66,1.26s.68,1.33,1.66,1.33h5.62c4.82,0,8.03,2.84,8.03,7.92,0,4.79-3.6,8.03-8.28,8.03h-15.05l.11-6.66Z"/>
      <path class="cls-1" d="M133.05,7.06h-7.49V.4h23.4v6.66h-7.49v18.54h-8.42V7.06Z"/>
      <path class="cls-1" d="M166.75,23.04h-9.07l-.68,2.56h-8.75L155.59.4h13.25l7.34,25.2h-8.75l-.68-2.56ZM164.95,16.31l-2.45-9.25h-.58l-2.45,9.25h5.47Z"/>
      <path class="cls-1" d="M176.9,12.96c0-7.16,5.83-12.96,12.99-12.96,3.71,0,7.02,1.55,9.39,4l-5.87,5.94c-.86-1.01-2.12-1.62-3.53-1.62-2.56,0-4.64,2.09-4.64,4.64s2.09,4.68,4.64,4.68c1.37,0,2.63-.61,3.46-1.58l5.94,5.9c-2.38,2.45-5.72,4-9.39,4-7.16,0-12.99-5.8-12.99-12.99Z"/>
      <path class="cls-1" d="M211.32,18.29l-1.44,1.76v5.54h-8.42V.4h8.42v8.21h.25l6.12-8.21h9.47l-9,11.19,9.58,14h-9.94l-4.86-7.31h-.18Z"/>
      <path class="cls-1" d="M27.39,56.01c0,8.28-7.09,12.78-12.38,12.78H0v-25.2h15.3c6.19,0,12.09,4.72,12.09,12.42ZM18.9,55.98c0-4.07-2.56-5.72-6.44-5.72h-4.03v11.88h4.32c3.53,0,6.16-2.38,6.16-6.16Z"/>
      <path class="cls-1" d="M38.7,50.22v2.63h13.82v6.66h-13.82v2.66h13.82v6.62h-22.25v-25.2h22.25v6.62h-13.82Z"/>
      <path class="cls-1" d="M54.07,43.6h9.07l4.57,18.54h.29l4.57-18.54h9.07l-6.98,25.2h-13.61l-6.98-25.2Z"/>
      <path class="cls-1" d="M91.98,50.22v2.63h13.82v6.66h-13.82v2.66h13.82v6.62h-22.25v-25.2h22.25v6.62h-13.82Z"/>
      <path class="cls-1" d="M130.57,62.13v6.66h-21.53v-25.2h8.42v18.54h13.1Z"/>
      <path class="cls-1" d="M131.29,56.16c0-7.16,5.83-12.96,12.99-12.96s12.99,5.8,12.99,12.96-5.83,12.99-12.99,12.99-12.99-5.8-12.99-12.99ZM148.93,56.16c0-2.56-2.09-4.64-4.64-4.64s-4.64,2.09-4.64,4.64,2.09,4.68,4.64,4.68,4.64-2.09,4.64-4.68Z"/>
      <path class="cls-1" d="M185.65,51.59c0,4.43-4.07,7.92-8.57,7.92h-8.67v9.29h-8.42v-25.2h17.46c5.11,0,8.21,2.95,8.21,7.99ZM177.22,51.52c0-.86-.58-1.26-1.37-1.26h-7.45v2.59h7.45c.79,0,1.37-.54,1.37-1.33Z"/>
      <path class="cls-1" d="M196.59,50.22v2.63h13.82v6.66h-13.82v2.66h13.82v6.62h-22.25v-25.2h22.25v6.62h-13.82Z"/>
      <path class="cls-1" d="M226.04,59.47h-3.96v9.32h-8.42v-25.2h17.82c5.11,0,8.21,2.95,8.21,7.99,0,3.35-2.23,6.05-5.22,7.24l6.05,9.97h-9.14l-5.33-9.32ZM222.08,52.88h7.81c.79,0,1.37-.54,1.37-1.37,0-.9-.58-1.3-1.37-1.3h-7.81v2.66Z"/>
    </g>
  </g>
</svg>