<?xml version="1.0" encoding="UTF-8"?>
<svg id="Layer_2" data-name="Layer 2" xmlns="http://www.w3.org/2000/svg" viewBox="0 0 812.22 251.89">
  <defs>
    <style>
      .cls-1 {
        fill: none;
        stroke: #fff;
        stroke-miterlimit: 10;
        stroke-width: 5px;
      }
    </style>
  </defs>
  <g id="bugs">
    <g>
      <path class="cls-1" d="M187.49,45.52c5.06-7.85,12.33-10.28,20.88-8.96,7.4,1.14,12.47,6.28,13.52,13.52,1.2,8.34-1.24,15.18-9.89,18.81,1.37.87,2.56,1.46,3.56,2.27,4.35,3.52,6.56,8.15,6.52,13.72-.05,6.36-5.1,11.13-12.15,11.46-4.41.2-8.83.13-13.25,0-2.98-.08-5.46-1.42-7.13-3.95-.3-.45-.01-1.29,0-1.94.56.22,1.35.29,1.64.7,1.93,2.68,4.67,3.32,7.7,3.24,4.32-.11,8.71.16,12.93-.55,6.29-1.06,8.91-5.27,8.03-11.62-.82-5.92-5.54-10.94-11.42-12.12-.98-.2-2-.17-2.96-.43-.44-.12-.77-.67-1.15-1.02.42-.29.81-.76,1.28-.85,1.47-.28,2.99-.29,4.44-.64,5.69-1.35,9.11-5.25,9.92-11.13.94-6.89-1.55-12.46-6.98-15.61-9.18-5.33-25.03-1-25.48,13.88-.01.42.09.91-.09,1.23-.25.43-.73.73-1.11,1.09-.27-.36-.67-.69-.77-1.1-.14-.55-.05-1.16-.05-1.74,0-12.08.02-24.16-.02-36.25,0-1.57-.15-3.17-.44-4.71-.75-4.04-3.89-7.44-7.97-7.9-3.6-.4-7.32-.43-10.9.05-4.63.62-8.13,5.01-8.14,9.71-.05,23.25-.06,46.49,0,69.74.01,5.4,4.48,9.77,9.9,9.93,2.58.08,5.17.06,7.75.01,5.13-.08,8.96-3.37,9.94-8.46.09-.49.09-1.03.32-1.46.26-.5.72-.89,1.09-1.32.3.51.86,1.02.87,1.54.14,5.67-5.22,11.44-10.92,11.67-3.33.14-6.67.15-10,0-5.71-.27-10.94-5.64-10.95-11.35-.06-23.58-.05-47.16,0-70.74.01-5.83,5.02-11.02,11.06-11.57,2.32-.21,4.66-.15,6.99-.13,8.22.07,13.36,5.21,13.41,13.49.05,8.75.01,17.5.01,26.25,0,1.08,0,2.15,0,3.23Z"/>
      <path class="cls-1" d="M149.64,160.17c.38.52.98.99,1.11,1.57,1.62,7.16,6.6,11.11,13.86,11.7,12.14.99,18.57-8.22,15.58-20.16-2.16-8.63-6.82-15.47-14.74-19.5-16.44-8.37-33.15-9.62-49.51.1-12.22,7.26-18.73,18.57-20.93,32.46-1.29,8.15-1.15,16.26,1.41,24.17,4.41,13.63,13.8,22.41,27.28,26.64,12.73,3.99,25.47,3.59,37.81-1.77,8.08-3.52,13.59-9.69,17.05-17.75.42-.97,1.02-1.85,1.54-2.77.33.11.66.22.98.33-.13.86-.12,1.77-.43,2.56-4.47,11.61-13.04,18.83-24.84,21.91-14.13,3.69-28.1,3.03-41.16-4.17-13.48-7.44-20.67-19.13-22.14-34.37-1.18-12.19,1.04-23.66,7.35-34.27,8.73-14.68,27.18-23.5,44.13-21.39,8.1,1.01,15.91,2.58,23.02,6.81,10.14,6.02,15.26,15.1,15.99,26.67.59,9.41-6.32,16.37-15.74,16.52-5.75.09-10.94-1.11-14.96-5.46-2.44-2.64-3.89-5.73-2.68-9.8Z"/>
      <path class="cls-1" d="M470.25,212.72c-4.59,7.54-11.52,9.32-19.46,8.87-13.69-.79-19.72-10.5-20.86-21.13-.91-8.56-1.55-17.11,1.47-25.45,3.31-9.11,11.08-14.46,20.77-14.74,7.02-.2,13.22,1.3,17.91,6.89,2.43,2.9,3.76,6.28,3.94,10.05.03.64-.58,1.3-.89,1.96-.38-.57-1.07-1.12-1.1-1.7-.5-10.11-9.79-17.01-22.54-14.9-10.15,1.68-16.4,8.6-17.84,19.39-.96,7.22-.57,14.45.84,21.6,3.28,16.59,19.69,18.42,29.56,14.18,3.96-1.7,6.47-4.83,7.47-9.12.15-.66.83-1.21,1.27-1.81.33.67.87,1.32.95,2.02.84,7.05,3.63,9.57,10.78,9.57,2,0,4.01-.14,6,.03,6.15.51,10.77-3.26,10.93-10.71.03-1.58,0-3.17,0-4.75,0-20.83,0-41.66,0-62.49,0-3.51-.62-6.8-3.39-9.31-4.29-3.88-16.39-3.93-20.7-.05-2.23,2-3.35,4.52-3.37,7.51-.02,4.33.04,8.67-.05,13-.02.74-.6,1.48-.92,2.22-.35-.7-.98-1.38-.99-2.09-.09-4.5-.09-9-.03-13.5.07-6.14,4.48-11.01,10.58-11.55,2.65-.24,5.33-.18,7.99-.14,8.07.14,12.87,4.97,12.89,13.03.04,15.16.01,30.33.01,45.49,0,7.67.05,15.33-.02,23-.06,6.21-3.02,11.01-8.31,11.8-4.94.74-10.12.58-15.12.08-3.91-.39-6.32-3.39-7.77-7.25Z"/>
      <path class="cls-1" d="M477.55,46.71c3.66-5.68,8.74-8.99,15.22-10.11,14.71-2.54,25.55,7.5,25.6,20.25.04,8.58.02,17.16,0,25.75,0,9.62-6.07,14.87-16.09,13.04.59-.41,1.14-1.06,1.79-1.18,1.21-.23,2.51,0,3.73-.22,4.97-.9,8.53-5.07,8.58-10.23.08-9.16.16-18.33,0-27.5-.25-13.27-13.69-21.74-26.83-16.99-7.32,2.64-11.2,7.99-12.02,15.68-.08.76-.62,1.46-.95,2.19-.35-.81-.99-1.61-.99-2.42-.06-13.08-.04-26.16-.05-39.25,0-7.21-3.89-11.2-11.05-11.23-2.65-.01-5.35,0-7.96.41-4.76.76-8.01,4.63-8.02,9.39-.03,23.58-.04,47.16,0,70.74.01,5.5,4.01,9.31,9.54,9.36,2.92.03,5.83.03,8.75,0,4.9-.07,7.98-2.65,8.93-7.38.07-.33.04-.71.21-.97.32-.47.75-.87,1.13-1.3.29.52.83,1.03.84,1.55.08,4.09-3.04,8.38-7.18,9.51-1.96.53-4.1.5-6.16.58-2.33.09-4.67.03-7,.02-6.05-.03-11.05-4.83-11.06-10.85-.04-23.91-.04-47.83,0-71.74,0-5.77,4.51-10.59,10.47-11.08,3.31-.27,6.67-.26,9.98-.01,6.13.46,10.54,5.32,10.57,11.52.05,10.83.02,21.66.02,32.49Z"/>
      <path class="cls-1" d="M247.26,219.49c.6-.36,1.18-.93,1.82-1.03,1.3-.21,2.68,0,3.97-.27,4.91-1.01,8.32-5.1,8.36-10.15.07-9.25.19-18.5-.02-27.75-.29-12.58-12.58-20.82-25.36-17.23-7.89,2.22-12.69,7.99-13.48,16.11-.07.76-.6,1.48-.92,2.22-.35-.8-1.01-1.6-1.01-2.41-.06-13-.04-26-.05-39,0-7.66-3.84-11.51-11.54-11.49-2.49,0-5.02,0-7.46.4-4.85.79-8.04,4.7-8.05,9.64-.02,23.41-.03,46.83,0,70.24,0,5.68,3.94,9.57,9.56,9.62,3,.03,6,.04,9-.02,4.7-.09,7.8-2.75,8.7-7.36.05-.25.02-.54.14-.73.36-.54.79-1.04,1.19-1.56.29.6.84,1.21.82,1.79-.19,4.39-3.16,8.12-7.4,9.36-1.02.3-2.11.46-3.18.48-3.17.06-6.33.03-9.5.02-6.51-.02-11.33-4.79-11.34-11.36-.03-23.58-.02-47.16,0-70.74,0-6.28,4.46-11.14,10.76-11.59,3.15-.23,6.34-.22,9.49,0,6.31.43,10.76,5.24,10.79,11.56.05,10.83.01,21.65.01,33.04.73-1.01,1.18-1.62,1.63-2.24,5.35-7.47,12.99-9.71,21.56-8.54,8.46,1.16,14.22,6.18,16.76,14.46.62,2.03.85,4.25.87,6.39.1,8.41.04,16.83.04,25.25,0,9.62-5.99,14.81-15.66,13.58-.17-.23-.34-.46-.51-.7Z"/>
      <path class="cls-1" d="M541.55,170.72c3.71-5.81,8.92-9.16,15.48-10.19,14.77-2.31,25.19,7.68,25.33,20.09.11,9.08.08,18.16,0,27.25-.07,8.01-6.74,13.63-14.69,12.48-.44-.06-.81-.55-1.22-.85.38-.36.71-.91,1.16-1.02.71-.18,1.49-.08,2.24-.09,5.9-.13,10.44-4.33,10.53-10.16.14-9.33.2-18.67,0-27.99-.2-9.17-7.38-16.74-16.49-17.87-9.97-1.23-18.78,3.85-21.42,12.47-.5,1.65-.56,3.43-.94,5.12-.12.52-.62.95-.95,1.42-.34-.48-.93-.94-.96-1.44-.12-1.83-.06-3.66-.06-5.5,0-11.67,0-23.33,0-35,0-6.86-3.94-10.88-10.82-10.96-2.74-.03-5.51-.02-8.21.41-4.75.75-7.99,4.63-8,9.41-.03,23.58-.04,47.16,0,70.74.01,5.4,3.98,9.27,9.31,9.34,3,.04,6,.04,9,0,4.87-.07,7.96-2.66,8.91-7.4.07-.33.03-.72.21-.97.32-.47.76-.86,1.15-1.28.29.52.81,1.04.82,1.57.04,5.15-4.58,9.9-9.86,10.06-3.83.12-7.67.11-11.5,0-5.35-.15-10.04-5.33-10.05-11.09-.03-19.41-.02-38.83-.02-58.24,0-4.25-.02-8.5,0-12.75.04-6.29,4.44-11.13,10.75-11.58,3.15-.23,6.34-.22,9.49,0,6.28.42,10.76,5.26,10.79,11.56.05,10.83.01,21.65.01,32.48Z"/>
      <path class="cls-1" d="M80.11,41.26c0,8.5.09,17-.02,25.49-.19,13.77-9.2,24.1-20.51,28.28-6.21,2.3-12.63,2.89-19.14,2.72-8.15-.21-16.08-1.57-23.08-6.13-9.39-6.12-14.53-14.87-14.71-26.04-.27-17.07-.1-34.16-.07-51.23.01-5.98,4.22-11.04,9.59-11.61.76-.08,1.58.43,2.37.66-.67.43-1.28,1.08-2.01,1.25-5.06,1.23-7.95,4.78-7.96,10.01-.02,16.41-.12,32.82.03,49.23.12,13.39,6.25,23.41,18.71,28.31,13.7,5.38,27.78,5.66,40.94-1.92,8.8-5.07,13.65-13.2,13.79-23.47.23-17.41.12-34.82.06-52.23-.02-6.21-4.05-10.04-10.27-10.09-3.42-.03-6.83-.03-10.25,0-6.26.04-10.28,4.02-10.33,10.35-.06,8.08-.02,16.16-.02,24.24,0,.67.12,1.36-.03,1.99-.19.78-.62,1.51-.94,2.26-.3-.76-.86-1.51-.87-2.27-.06-9.08-.09-18.16-.01-27.24.05-6.14,4.94-11.06,11.11-11.23,4.16-.11,8.33-.11,12.49,0,6.18.17,10.95,4.78,11.05,10.93.15,9.24.04,18.49.04,27.74,0,0,.02,0,.03,0Z"/>
      <path class="cls-1" d="M775.85,175.45c2.1-3.18,3.81-6.04,5.79-8.7,5.42-7.28,13.23-8.45,21.09-3.3,7.04,4.62,9.01,12.56,4.81,20.06-10.81,19.32-21.65,38.61-32.55,57.88-4.18,7.39-11.99,9.95-19.16,6.41-.83-.41-1.48-1.16-2.22-1.75.15-.28.31-.56.46-.84.72.17,1.5.23,2.16.54,6.95,3.24,13.03,1.49,16.83-5.21,11.05-19.47,22.03-38.97,32.95-58.51,3.61-6.46,1.84-12.81-4.4-16.89-7.15-4.67-14.05-3.43-18.79,3.68-3.04,4.56-5.68,9.4-8.5,14.11-.38.64-.69,1.36-1.19,1.9-.45.47-1.12.73-1.69,1.09,0-.73-.25-1.57.03-2.18.75-1.66,1.84-3.18,2.56-4.85.3-.7.32-1.83-.05-2.45-1.83-3.07-3.72-6.13-5.81-9.02-3.48-4.81-8.22-6.2-14.14-4.41-6.34,1.92-10.47,6.25-10.46,11.85,0,2.97.43,6.35,1.89,8.83,5.62,9.53,11.71,18.78,17.7,28.09,1.81,2.81,4.46,4.64,7.65,5.75.68.24,1.14,1.12,1.7,1.7-.79.07-1.65.39-2.35.17-3.86-1.24-6.93-3.65-9.12-7.02-5.58-8.58-11.09-17.21-16.58-25.85-2.24-3.53-3.45-7.42-3.07-11.61.72-8.07,7.69-14.17,16.05-14.66,5.79-.33,9.96,1.96,12.99,6.71,1.74,2.73,3.49,5.45,5.43,8.48Z"/>
      <path class="cls-1" d="M633.33,168.94c2.7-5.63,7.28-7.64,12.94-7.62,2.82.01,5.68.02,8.45.48,5.49.92,9.26,5.09,9.36,10.7.21,12.24.25,24.48.1,36.72-.07,5.8-3.18,9.53-8.97,10.68-4.87.97-9.92,1.15-14.77-.44-2.11-.69-4-1.86-4.8-5.04,1.21.57,2,.73,2.48,1.21,1.95,1.97,4.36,2.68,7.01,2.74,2.41.05,4.83.07,7.25,0,5.86-.15,9.79-3.87,9.85-9.68.11-11.66.12-23.32,0-34.98-.06-5.88-3.41-9.52-9.28-10.12-3.2-.33-6.51-.33-9.7.08-6.04.78-8.86,5.09-7.55,10.93.09.41.3.84.23,1.22-.15.82-.45,1.61-.68,2.42-.44-.66-1.14-1.26-1.28-1.98-1.66-8.18-8.24-13.48-16.57-13.99-15.39-.95-24.36,9.71-25.47,22.92-.6,7.15-.49,14.16,2.21,20.88,3.86,9.61,13.04,14.24,23.11,13.4,3.16-.26,6.35-1.23,9.3-2.43,3.21-1.3,5.38-3.83,5.96-7.48.09-.59.75-1.09,1.15-1.62.3.67.94,1.4.85,2.02-.54,3.7-2.67,6.38-5.79,8.31-11.22,6.92-30.5,3.77-36.25-11.23-4.54-11.83-4.52-23.85,1.66-35.2,4.14-7.6,11.14-11.12,19.74-11.52,5.91-.28,11.48.56,15.99,4.82,1.2,1.13,2.24,2.44,3.5,3.82Z"/>
      <path class="cls-1" d="M314.27,169.1c3-6.28,8.18-8.03,14.36-7.79,2.49.1,5.02.08,7.45.53,5.1.95,8.92,5.13,9.01,10.24.22,12.33.34,24.66.15,36.98-.1,6.88-5.11,11.39-12.01,11.28-3.96-.06-7.95-.32-11.84-.98-2.1-.36-3.97-1.79-4.06-4.72.64.35,1.28.69,1.92,1.04,1.44.78,2.84,2.13,4.32,2.23,4.2.28,8.5.53,12.62-.1,4.53-.69,7.05-4.16,7.08-8.71.09-11.92.1-23.83,0-35.75-.05-5.24-3.46-9.11-8.65-9.66-3.53-.38-7.15-.23-10.69.05-2.97.24-5.48,1.87-6.74,4.58-.7,1.51-.6,3.44-.67,5.18-.04.97.47,1.96.45,2.94,0,.6-.53,1.19-.83,1.79-.38-.54-.98-1.03-1.11-1.62-1.9-8.93-8.18-13.89-17.27-14.36-13.85-.71-23.53,8.8-24.83,22.84-.57,6.13-.44,12.16,1.18,18.07,2.99,10.92,13.12,17.74,24.32,16.28,3.23-.42,6.49-1.38,9.5-2.64,3.03-1.27,5.02-3.74,5.57-7.2.1-.61.89-1.1,1.35-1.65.22.73.74,1.52.63,2.19-.62,3.69-2.82,6.3-5.96,8.2-11.09,6.71-30.29,3.69-36.05-11.34-4.53-11.81-4.55-23.85,1.66-35.2,4.16-7.6,11.15-11.06,19.76-11.53,7.94-.44,14.64,1.72,19.37,8.81Z"/>
      <path class="cls-1" d="M274.93,90.63c.64.35,1.28.71,1.92,1.06,1.44.78,2.84,2.11,4.32,2.22,4.11.3,8.34.58,12.38-.05,4.9-.76,7.33-4.33,7.34-9.26.02-11.58.02-23.16,0-34.75-.01-5.57-3.37-9.63-8.91-10.21-3.45-.36-6.99-.24-10.45.09-3.14.29-5.74,2.01-6.98,4.99-.59,1.41-.41,3.15-.48,4.75-.02.56.43,1.15.36,1.69-.12,1.03-.46,2.03-.71,3.04-.44-.88-1.09-1.71-1.28-2.64-1.42-7.28-8.34-12.79-16.14-13.29-17.17-1.11-24.99,11.31-25.83,23.34-.5,7.13-.41,14.12,2.43,20.83,4.02,9.46,13.17,13.82,22.87,13.01,3.23-.27,6.51-1.29,9.52-2.54,3.09-1.28,5.27-3.71,5.78-7.31.08-.6.75-1.12,1.14-1.68.3.67.91,1.38.85,2.01-.41,3.78-2.67,6.37-5.77,8.3-10.77,6.69-29.79,4.2-35.94-10.57-4.98-11.96-4.99-24.27,1.4-35.88,4.17-7.59,11.16-11.05,19.77-11.51,7.92-.42,14.6,1.76,19.35,8.82,2.98-6.25,8.07-7.99,14.14-7.8,2.41.08,4.85.06,7.2.47,5.56.96,9.42,5.01,9.52,10.6.22,12.49.21,24.99.07,37.49-.06,4.83-3.25,9.08-8.14,9.8-4.92.72-10.06.37-15.05-.05-2.3-.19-4.35-1.83-5.21-4.25.17-.24.35-.48.52-.73Z"/>
      <path class="cls-1" d="M430.84,59.7c6.92-5.9,5.21-15.95-3.78-19.11-2.16-.76-4.56-1.16-6.86-1.17-7.33-.06-14.69-.27-21.97.32-12.12.98-18.51,13.51-12.22,23.49,2.74,4.34,6.89,6.64,11.92,7.41.9.14,1.85.09,2.72.33.51.14.91.7,1.36,1.06-.5.29-.98.8-1.51.85-6.97.61-15.27-4.58-17.6-11.25-3.63-10.39.52-21.15,13.04-23.51,9.8-1.85,19.98-1.83,29.81.11,11.48,2.27,14.85,13.85,7.04,22.57-.16.18-.29.4-.56.79,3.35,3.1,5.67,6.87,6.49,11.41,2.17,12-4.45,23.35-18.38,23.35-7.9,0-15.86.21-23.7-.6-7.82-.81-13.69-4.98-15.81-13.12-.37-1.43-.49-2.94-.56-4.42-.02-.4.58-.82.9-1.23.33.31.78.57.97.96.21.43.21.97.26,1.46.7,7.23,5.24,12.52,12.5,13.98,3.48.7,7.09.95,10.65.97,6.23.03,12.56.32,18.68-.58,8.08-1.19,12.75-7.6,12.86-16,.11-8.89-4.73-15.75-12.51-17.66-.8-.2-1.68-.1-2.45-.35-.62-.2-1.13-.72-1.69-1.1.58-.29,1.21-.91,1.72-.82,2.74.49,5.45,1.15,8.67,1.86Z"/>
      <path class="cls-1" d="M102.13,37.22c1.06-7.48,4.1-11.67,9.89-12.62,3.39-.56,7.03-.54,10.41.04,5.97,1.03,9.21,5.24,9.59,11.38.02.32.1.64.16,1.05,2.17.22,4.32.3,6.42.67,5.45.97,9.3,5,9.83,10.47.27,2.8.29,5.67.02,8.46-.64,6.61-5.81,11.14-12.46,11.17-2.67.01-5.34.07-8-.05-.71-.03-1.4-.65-2.1-1,.67-.32,1.33-.88,2.02-.9,2.75-.11,5.5-.02,8.25-.06,5.52-.09,9.92-4.26,10.32-9.81.14-1.91.22-3.83.12-5.74-.38-6.68-4.18-10.47-10.89-10.95-1.65-.12-3.78.45-4.83-.38-.94-.75-.54-3.03-1.01-4.56-.46-1.48-.99-3.1-1.97-4.24-4.46-5.2-10.39-4.65-16.17-3.45-4.44.92-7.11,4.98-7.39,10.38-.09,1.75-.75,2.2-2.43,2.26-7.9.27-11.7,4.26-11.71,12.11,0,1.5-.06,3,.02,4.5.31,5.53,4.74,9.77,10.28,9.89q3.78.08,3.78,3.85c0,4.67-.05,9.33.02,14,.09,6.58,4.29,10.66,10.91,10.7,3.33.02,6.67.05,10-.02,5.22-.12,9.18-3.26,10.67-8.21.21-.71.94-1.27,1.44-1.9.17.79.62,1.65.46,2.36-1.23,5.51-6.39,9.65-12.09,9.74-3.91.07-7.83.06-11.75,0-6.17-.08-11.46-5.34-11.53-11.5-.07-5.56-.01-11.13-.01-16.73-1.87-.26-3.53-.32-5.09-.75-5.38-1.46-8.87-6-8.98-11.52-.03-1.75-.02-3.5,0-5.25.03-7.83,4.39-12.59,12.19-13.31.5-.05.99-.06,1.64-.1Z"/>
      <path class="cls-1" d="M393.56,213.74c-6.99,7.48-15.35,9.48-24.91,7.17-8.34-2.02-13.98-8.82-14.09-17.44-.16-11.66-.07-23.33-.03-34.99,0-.67.57-1.33.88-2,.36.73,1.03,1.45,1.03,2.18.07,11-.02,22,.09,32.99.13,13.67,10.15,19.03,21.74,18,3.69-.33,7.17-1.52,10.11-3.89,2.89-2.32,4.85-5.18,5.28-9,.07-.67.91-1.26,1.4-1.88.21.72.71,1.5.58,2.15-.61,2.93-.99,5.63,1.47,8.1,2.57,2.57,5.55,3.5,9.05,3.3,1.25-.07,2.5,0,3.75-.02,5.67-.08,10-3.92,10.09-9.61.19-11.83.18-23.66,0-35.49-.08-5.47-3.71-9.1-9.17-9.8-1.72-.22-3.49-.2-5.24-.17-6.25.11-9.68,3.02-10.99,9.11-.14.67-.74,1.25-1.12,1.86-.29-.75-.9-1.54-.82-2.26.56-5.33,4.3-9.56,9.63-10.31,3.25-.46,6.67-.48,9.91,0,5.75.85,9.75,5.47,9.82,11.23.14,12.08.17,24.16,0,36.24-.1,6.35-5.42,11.15-11.76,11.19-.92,0-1.84-.07-2.75.01-5.95.55-10.84-1.15-13.94-6.66Z"/>
      <path class="cls-1" d="M342.35,45.88c2.5-4.89,5.86-8.21,10.98-9.21,11.3-2.21,21.39,4.28,21.16,16.1-.06,3.32-.7,6.8-1.91,9.88-3.23,8.24-14.32,10.06-21.15,6.39-.45-.24-.66-.95-.98-1.44.63-.12,1.31-.45,1.88-.33,1.94.42,3.85,1.5,5.74,1.42,2.65-.11,5.53-.52,7.86-1.7,5.49-2.78,8.02-10.66,6.21-17.8-1.63-6.44-6.77-10.66-13.24-10.88-9.12-.3-15.22,4.95-16.31,13.95-.07.6-.66,1.14-1,1.7-.33-.58-.85-1.12-.94-1.74-.19-1.23-.07-2.49-.2-3.73-.51-5-3.54-8.35-8.55-8.91-3.03-.34-6.17-.33-9.2.02-5.15.59-8.62,4.77-8.63,9.96-.03,11.66-.03,23.32,0,34.99.01,5.43,4.18,9.68,9.56,9.82,2.5.06,5,.06,7.5,0,4.77-.13,8.5-3.48,9.25-8.22.05-.33-.02-.72.14-.98.31-.5.75-.92,1.14-1.37.3.58.87,1.17.85,1.75-.12,4.33-3.37,9.4-7.67,10.06-4.91.75-10.13.8-15.01-.03-4.7-.8-7.74-5.84-7.75-10.73-.04-11.66-.03-23.32-.01-34.99.01-6.67,3.77-11.33,10.37-12.27,3.18-.45,6.5-.41,9.7-.06,4.86.53,8.19,3.39,10.22,8.35Z"/>
      <path class="cls-1" d="M703.77,169.89c5.84-13.25,23.12-11.32,29.03-3.32,5.63,7.61,4.35,24.38-7.5,27.54-3.91,1.04-7.75,1.09-11.46-.61-.79-.36-1.31-1.31-1.96-1.98.88.02,1.77-.07,2.63.07,2.36.38,4.72,1.3,7.05,1.22,6.41-.24,10.6-4.41,12.15-11.55,1.65-7.59-1.63-14.81-7.99-17.62-10.07-4.44-20.63,1.66-21.73,12.5-.07.66-.72,1.26-1.1,1.89-.29-.67-.84-1.34-.84-2.01,0-4.32-.53-8.32-4.59-10.96-3.83-2.49-13.84-2.56-17.57.06-2.74,1.92-4.39,4.55-4.4,7.99-.03,11.92-.06,23.83,0,35.75.03,5.34,4.2,9.41,9.56,9.53,2.33.05,4.67.04,7,0,5.04-.08,8.69-3.16,9.62-8.09.08-.41.04-.89.24-1.22.3-.48.77-.87,1.16-1.29.28.52.81,1.04.81,1.56-.05,5.62-5.26,10.9-10.89,11.03-2.83.07-5.67.06-8.5,0-5.83-.11-10.97-5.23-11.01-11.1-.07-11.83-.05-23.67-.03-35.5.01-6.66,3.79-11.29,10.4-12.22,3.18-.44,6.51-.41,9.71-.02,4.95.61,7.53,2.95,10.19,8.34Z"/>
    </g>
  </g>
</svg>