<?xml version="1.0" encoding="UTF-8"?>
<svg id="Layer_2" data-name="Layer 2" xmlns="http://www.w3.org/2000/svg" viewBox="0 0 306.32 68.76">
  <defs>
    <style>
      .cls-1 {
        fill: #231f20;
        stroke-width: 0px;
      }
    </style>
  </defs>
  <g id="Layer_1-2" data-name="Layer 1">
    <g>
      <path class="cls-1" d="M0,13.86V0h8.42v13.71c0,3.17,1.66,4.82,4.21,4.82s4.1-1.66,4.1-4.82V0h8.42v13.86c0,8.49-5.98,11.7-12.71,11.7S0,22.35,0,13.86Z"/>
      <path class="cls-1" d="M34.59,9.25h-7.27V3.42h21.92v5.83h-7.27v15.95h-7.38v-15.95Z"/>
      <path class="cls-1" d="M60.01,17.67l-1.22,1.37v6.16h-7.38V3.42h7.38v6.77h.25l6.01-6.77h7.92l-8.21,9.04,8.75,12.74h-8.1l-5.11-7.52h-.29Z"/>
      <path class="cls-1" d="M90.39,22.68h-7.85l-.72,2.52h-8.28l7.27-21.78h11.3l7.27,21.78h-8.28l-.72-2.52ZM88.77,16.85l-2.12-7.59h-.36l-2.12,7.59h4.61Z"/>
      <path class="cls-1" d="M118.98,16.88l4.79,8.31h-7.78l-4.35-8.03h-3.35v8.03h-7.38V3.42h15.66c3.49,0,7.27,2.09,7.27,6.8,0,3.31-2.12,5.83-4.86,6.66ZM108.29,11.41h7.31c.58,0,1.08-.5,1.08-1.12,0-.72-.5-1.08-1.08-1.08h-7.31v2.2Z"/>
      <path class="cls-1" d="M126.21,19.37h12.53c.94,0,1.33-.5,1.33-1.12,0-.68-.43-1.04-1.37-1.04h-5.65c-4.1,0-7.23-2.09-7.23-6.88,0-5.04,4.14-6.91,7.63-6.91h13.03v5.83h-11.88c-.9,0-1.26.47-1.26,1.04s.36,1.08,1.26,1.08h4.82c5.18,0,8.17,2.66,8.17,6.73s-3.1,7.09-8.06,7.09h-13.32v-5.83Z"/>
      <path class="cls-1" d="M175.24,3.42v21.78h-7.38v-7.99h-10.19v7.99h-7.38V3.42h7.38v7.96h10.19V3.42h7.38Z"/>
      <path class="cls-1" d="M71.46,55.76c0-7.16,5.83-12.96,12.99-12.96,3.71,0,7.02,1.55,9.4,4l-5.87,5.94c-.86-1.01-2.12-1.62-3.53-1.62-2.56,0-4.64,2.09-4.64,4.64s2.09,4.68,4.64,4.68c1.37,0,2.63-.61,3.46-1.58l5.94,5.9c-2.38,2.45-5.72,4-9.4,4-7.16,0-12.99-5.8-12.99-12.99Z"/>
      <path class="cls-1" d="M120.96,46.62v21.78h-7.38v-7.99h-10.19v7.99h-7.38v-21.78h7.38v7.96h10.19v-7.96h7.38Z"/>
      <path class="cls-1" d="M139.32,65.88h-7.85l-.72,2.52h-8.28l7.27-21.78h11.3l7.27,21.78h-8.28l-.72-2.52ZM137.7,60.05l-2.12-7.59h-.36l-2.12,7.59h4.61Z"/>
      <path class="cls-1" d="M149.11,57.2v-10.58h7.38v11.12c0,3.17,1.66,4.82,4.21,4.82s4.1-1.66,4.1-4.82v-11.12h7.38v10.58c0,8.5-4.93,11.55-11.66,11.55s-11.41-3.06-11.41-11.55Z"/>
      <path class="cls-1" d="M200.16,57.31c0,6.37-5.22,11.09-10.51,11.09h-14.22v-21.78h14.51c5.11,0,10.22,4.5,10.22,10.69ZM192.74,57.27c0-2.59-2.12-4.82-4.82-4.82h-5.11v10.11h5.26c2.41,0,4.68-2.38,4.68-5.29Z"/>
      <path class="cls-1" d="M227.8,46.62v21.78h-7.38v-7.99h-10.19v7.99h-7.38v-21.78h7.38v7.96h10.19v-7.96h7.38Z"/>
      <path class="cls-1" d="M246.16,65.88h-7.85l-.72,2.52h-8.28l7.27-21.78h11.3l7.27,21.78h-8.28l-.72-2.52ZM244.54,60.05l-2.12-7.59h-.36l-2.12,7.59h4.61Z"/>
      <path class="cls-1" d="M274.75,60.08l4.79,8.31h-7.77l-4.36-8.03h-3.35v8.03h-7.38v-21.78h15.66c3.49,0,7.27,2.09,7.27,6.8,0,3.31-2.12,5.83-4.86,6.66ZM264.06,54.61h7.31c.58,0,1.08-.5,1.08-1.12,0-.72-.5-1.08-1.08-1.08h-7.31v2.2Z"/>
      <path class="cls-1" d="M288.72,60.41l-10.55-13.79h9l5.04,6.88h.25l4.9-6.88h8.96l-10.22,13.79v7.99h-7.38v-7.99Z"/>
    </g>
  </g>
</svg>