<?xml version="1.0" encoding="UTF-8"?>
<svg id="Layer_2" data-name="Layer 2" xmlns="http://www.w3.org/2000/svg" viewBox="0 0 244.59 25.07">
  <defs>
    <style>
      .cls-1 {
        fill: none;
        stroke: #fff;
        stroke-miterlimit: 10;
        stroke-width: 2px;
      }
    </style>
  </defs>
  <g id="Layer_1-2" data-name="Layer 1">
    <g>
      <path class="cls-1" d="M23.81,8.46c0,3.94-3.62,7.04-7.62,7.04h-7.71v8.26H1V1.35h15.52c4.54,0,7.3,2.62,7.3,7.1ZM16.33,8.39c0-.77-.51-1.12-1.22-1.12h-6.62v2.3h6.62c.7,0,1.22-.48,1.22-1.18Z"/>
      <path class="cls-1" d="M30.63,12.52c0-6.37,5.18-11.52,11.55-11.52s11.55,5.15,11.55,11.52-5.18,11.55-11.55,11.55-11.55-5.15-11.55-11.55ZM46.31,12.52c0-2.27-1.86-4.13-4.13-4.13s-4.13,1.86-4.13,4.13,1.86,4.16,4.13,4.16,4.13-1.86,4.13-4.16Z"/>
      <path class="cls-1" d="M72.52,15.46h-3.52v8.29h-7.49V1.35h15.84c4.54,0,7.3,2.62,7.3,7.1,0,2.98-1.98,5.38-4.64,6.43l5.38,8.86h-8.13l-4.74-8.29ZM69,9.61h6.94c.7,0,1.22-.48,1.22-1.22,0-.8-.51-1.15-1.22-1.15h-6.94v2.37Z"/>
      <path class="cls-1" d="M98.69,7.27h-6.66V1.35h20.8v5.92h-6.66v16.48h-7.49V7.27Z"/>
      <path class="cls-1" d="M127.78,7.27v2.3h12.19v5.92h-12.19v8.26h-7.49V1.35h19.68v5.92h-12.19Z"/>
      <path class="cls-1" d="M147.59,12.52c0-6.37,5.18-11.52,11.55-11.52s11.55,5.15,11.55,11.52-5.18,11.55-11.55,11.55-11.55-5.15-11.55-11.55ZM163.27,12.52c0-2.27-1.86-4.13-4.13-4.13s-4.13,1.86-4.13,4.13,1.86,4.16,4.13,4.16,4.13-1.86,4.13-4.16Z"/>
      <path class="cls-1" d="M197.6,17.83v5.92h-19.13V1.35h7.49v16.48h11.65Z"/>
      <path class="cls-1" d="M205.06,1.35h7.49v22.4h-7.49V1.35Z"/>
      <path class="cls-1" d="M220.49,12.52c0-6.37,5.18-11.52,11.55-11.52s11.55,5.15,11.55,11.52-5.18,11.55-11.55,11.55-11.55-5.15-11.55-11.55ZM236.17,12.52c0-2.27-1.86-4.13-4.13-4.13s-4.13,1.86-4.13,4.13,1.86,4.16,4.13,4.16,4.13-1.86,4.13-4.16Z"/>
    </g>
  </g>
</svg>